<?xml version="1.0" standalone="no"?>
<!DOCTYPE svg PUBLIC "-//W3C//DTD SVG 20010904//EN"
 "http://www.w3.org/TR/2001/REC-SVG-20010904/DTD/svg10.dtd">
<svg version="1.0" xmlns="http://www.w3.org/2000/svg"
 width="1700.000000pt" height="1700.000000pt" viewBox="0 0 1700.000000 1700.000000"
 preserveAspectRatio="xMidYMid meet">
<metadata>
Created by potrace 1.14, written by Peter Selinger 2001-2017
</metadata>
<g transform="translate(0.000000,1700.000000) scale(0.100000,-0.100000)"
fill="#000000" stroke="none">
<path d="M9755 14785 c-468 -54 -906 -230 -1255 -503 -37 -29 -69 -47 -75 -43
-5 5 -48 39 -95 77 -490 393 -984 507 -1560 360 -74 -19 -220 -62 -323 -95
l-189 -60 -81 45 c-238 132 -444 192 -682 201 -129 4 -165 2 -255 -17 -353
-72 -615 -309 -729 -656 -42 -130 -54 -221 -50 -387 l4 -147 -55 -29 c-30 -16
-71 -33 -90 -39 -58 -18 -231 -31 -289 -21 -191 30 -502 29 -661 -2 -234 -46
-428 -145 -567 -292 -88 -93 -124 -145 -178 -260 -126 -266 -164 -641 -109
-1069 5 -43 5 -43 -57 -93 -128 -104 -248 -269 -309 -426 -75 -195 -85 -418
-29 -637 26 -99 104 -258 169 -344 109 -143 295 -291 481 -381 85 -41 87 -44
136 -123 l49 -80 -26 -135 c-70 -346 -93 -594 -94 -984 0 -406 23 -660 95
-1019 207 -1028 696 -1939 1435 -2668 292 -288 595 -521 938 -723 l98 -58 -6
-201 c-61 -1800 -125 -2798 -237 -3698 -16 -131 -29 -247 -29 -258 0 -19 6
-20 235 -20 l234 0 6 32 c7 45 52 425 61 518 4 41 11 84 15 95 9 20 6 -86 -12
-404 -5 -95 -9 -188 -9 -207 l0 -34 240 0 240 0 0 23 c0 12 7 155 15 317 48
985 54 2071 16 2935 -4 94 -6 172 -5 174 2 1 50 -42 107 -96 237 -226 512
-435 780 -594 l57 -34 0 -300 c-1 -679 -28 -2121 -46 -2348 l-5 -77 244 0 244
0 7 208 c18 546 26 946 32 1580 l7 690 49 -2 c42 -1 53 3 73 26 13 15 26 46
30 70 52 323 149 668 248 878 73 156 48 174 247 -176 180 -314 187 -324 247
-324 30 0 3 -27 423 427 179 194 328 349 331 345 9 -10 56 -328 74 -497 8 -77
20 -261 27 -409 13 -294 16 -307 77 -321 46 -10 215 65 374 167 26 17 51 28
54 24 7 -7 14 -118 33 -586 7 -146 14 -678 17 -1182 l5 -918 238 0 238 0 7
336 c13 594 -12 1684 -61 2599 l-6 110 69 55 c214 172 620 560 843 805 235
258 423 497 553 702 39 62 72 111 74 110 12 -13 147 -507 203 -749 193 -819
302 -1646 341 -2578 11 -268 6 -1267 -7 -1352 l-6 -38 239 0 240 0 6 60 c4 34
10 203 14 378 3 174 10 307 14 297 4 -11 19 -157 34 -325 14 -168 28 -329 31
-357 l5 -53 235 0 c217 0 234 1 234 18 0 28 -29 372 -45 547 -177 1829 -491
3446 -945 4862 l-52 163 99 117 c247 295 437 581 606 913 45 89 95 172 117
195 21 22 67 77 103 122 230 288 371 589 422 903 9 58 28 143 41 190 46 165
86 408 118 710 14 126 37 529 51 885 26 647 38 774 110 1165 94 509 102 695
44 997 -83 431 -368 836 -742 1055 -241 141 -554 207 -850 179 -144 -13 -279
-39 -400 -78 -44 -13 -80 -23 -81 -21 -2 2 -16 55 -31 118 -73 301 -193 597
-333 824 -317 513 -774 822 -1348 911 -142 22 -423 27 -569 10z m288 -152
c-24 -2 -62 -2 -85 0 -24 2 -5 4 42 4 47 0 66 -2 43 -4z m-226 -9 c-3 -3 -12
-4 -19 -1 -8 3 -5 6 6 6 11 1 17 -2 13 -5z m-90 -10 c-3 -3 -12 -4 -19 -1 -8
3 -5 6 6 6 11 1 17 -2 13 -5z m-4370 -10 c-3 -3 -12 -4 -19 -1 -8 3 -5 6 6 6
11 1 17 -2 13 -5z m1876 -31 c-7 -2 -21 -2 -30 0 -10 3 -4 5 12 5 17 0 24 -2
18 -5z m50 0 c-7 -2 -19 -2 -25 0 -7 3 -2 5 12 5 14 0 19 -2 13 -5z m60 0 c-7
-2 -21 -2 -30 0 -10 3 -4 5 12 5 17 0 24 -2 18 -5z m-2046 -320 c-25 -29 -137
-196 -133 -200 2 -2 53 10 113 27 118 32 409 100 433 100 8 0 -18 -20 -58 -45
-211 -130 -399 -340 -473 -528 -21 -55 -29 -68 -35 -54 -13 36 4 200 30 282
14 43 24 80 23 81 -1 2 -38 -13 -82 -33 -44 -19 -104 -44 -134 -54 l-54 -19 6
72 c10 121 87 248 196 325 36 24 132 62 160 63 22 0 23 -1 8 -17z m1370 -110
c10 -49 6 -187 -8 -281 -6 -41 -8 -76 -6 -79 3 -2 27 20 53 49 118 130 299
307 305 300 12 -11 37 -113 50 -202 6 -44 13 -80 15 -80 3 0 48 39 102 86 98
87 288 234 302 234 11 0 55 -122 71 -195 7 -33 13 -105 12 -160 -1 -221 -110
-401 -298 -491 -111 -54 -114 -48 -40 65 36 55 77 125 91 158 50 112 79 274
56 310 -4 7 -29 -14 -67 -59 -33 -38 -96 -101 -140 -140 -78 -68 -249 -188
-268 -188 -6 0 -8 65 -5 174 l6 175 -41 -52 c-145 -186 -324 -303 -479 -315
-38 -2 -68 -3 -68 0 0 3 23 43 51 89 84 137 206 395 246 521 21 65 41 118 45
118 4 0 11 -17 15 -37z m3810 -59 c232 -48 432 -222 570 -499 68 -135 65 -137
-43 -40 -152 135 -316 256 -419 307 -52 27 -126 51 -133 43 -2 -2 19 -43 48
-90 61 -102 145 -269 194 -386 40 -99 96 -264 96 -285 0 -9 -57 28 -137 89
-246 186 -366 253 -578 322 -114 38 -307 78 -415 88 l-35 3 35 16 c20 9 74 24
120 34 173 35 380 3 569 -86 l84 -40 -7 32 c-10 57 -83 191 -181 339 -52 78
-94 144 -92 145 2 2 28 8 58 13 86 14 183 12 266 -5z m-6320 -780 c-3 -3 -12
-4 -19 -1 -8 3 -5 6 6 6 11 1 17 -2 13 -5z m-147 -517 c37 -121 83 -199 174
-294 l40 -43 -42 0 c-124 0 -290 57 -455 156 -60 36 -111 63 -114 60 -10 -10
38 -170 69 -228 18 -34 54 -85 80 -114 46 -49 47 -52 25 -58 -12 -3 -69 -6
-127 -6 -153 0 -271 31 -418 111 -41 21 -76 39 -79 39 -11 0 6 -103 27 -165
11 -35 36 -87 54 -118 l33 -55 -28 8 c-100 29 -192 112 -231 209 -20 48 -23
73 -22 181 0 83 5 137 15 162 l14 37 80 -56 c44 -30 126 -77 181 -104 100 -49
244 -103 251 -95 3 2 -3 18 -11 35 -26 50 -56 191 -56 266 0 74 19 177 42 234
l13 33 60 -45 c33 -25 105 -87 160 -138 l100 -92 6 100 c7 110 31 179 85 242
l29 35 12 -112 c6 -62 21 -145 33 -185z m7777 166 c-3 -10 -5 -2 -5 17 0 19 2
27 5 18 2 -10 2 -26 0 -35z m-5452 -124 c222 -109 419 -299 524 -506 43 -86
73 -200 69 -267 l-3 -54 -71 89 c-96 121 -367 414 -372 401 -2 -6 6 -57 17
-114 44 -229 47 -470 8 -622 l-13 -48 -73 98 c-80 107 -332 418 -404 499 l-45
50 5 -225 c6 -216 -6 -413 -26 -433 -4 -4 -32 30 -62 75 -67 104 -208 293
-285 384 -108 128 -247 284 -253 284 -4 0 -5 -104 -3 -232 l5 -232 -62 53
c-55 48 -188 198 -243 274 -25 35 -13 34 69 -3 l66 -30 -6 97 c-4 54 -10 160
-13 237 l-7 139 79 -42 c195 -102 391 -302 542 -552 42 -70 69 -101 57 -66
-20 60 -128 618 -120 625 7 8 98 -49 167 -105 121 -98 302 -299 458 -507 24
-32 46 -54 48 -48 9 28 -120 600 -176 780 l-20 63 21 -6 c12 -4 67 -29 122
-56z m6328 34 c-7 -2 -19 -2 -25 0 -7 3 -2 5 12 5 14 0 19 -2 13 -5z m-3260
-179 c299 -151 421 -180 837 -193 l215 -7 -85 -41 c-266 -130 -553 -143 -811
-38 -34 14 -64 23 -67 20 -8 -8 46 -90 85 -127 74 -72 183 -124 353 -169 l45
-12 -30 -8 c-16 -5 -86 -13 -154 -19 -200 -18 -466 11 -731 78 -63 16 -116 28
-118 27 -11 -10 51 -100 107 -155 116 -114 283 -184 525 -218 l120 -17 -120
-37 c-710 -218 -1223 -59 -1585 491 -38 58 -67 106 -65 108 2 2 50 -32 107
-75 307 -235 610 -385 804 -399 l70 -5 -45 38 c-138 115 -270 292 -366 489
-30 62 -54 117 -54 122 0 6 80 -19 178 -55 222 -82 756 -262 761 -257 2 2 -17
28 -41 57 -130 154 -228 376 -228 515 l0 43 83 -45 c45 -25 140 -75 210 -111z
m3284 -388 c198 -100 398 -295 530 -517 l38 -64 3 178 c1 97 6 177 10 177 4 0
26 -17 49 -38 149 -133 245 -379 267 -684 3 -44 2 -78 -3 -78 -12 0 -92 126
-144 227 -23 46 -44 83 -47 83 -3 0 -13 -44 -22 -99 -10 -54 -25 -131 -34
-171 l-16 -71 -47 110 c-79 182 -168 320 -274 424 -49 48 -154 127 -170 127
-2 0 -7 -127 -10 -282 -4 -169 -14 -358 -26 -468 -20 -188 -60 -472 -67 -479
-4 -5 -5 -2 -39 127 -94 364 -271 736 -489 1022 -35 47 -63 86 -61 88 6 7 81
-31 145 -73 95 -63 201 -173 278 -289 60 -90 67 -97 73 -75 14 50 9 266 -10
394 -16 109 -75 402 -97 483 l-7 23 52 -20 c28 -12 81 -36 118 -55z m-10030
-103 c-2 -27 -3 -5 -3 47 0 52 1 74 3 48 2 -27 2 -69 0 -95z m10 -215 c-3 -8
-6 -5 -6 6 -1 11 2 17 5 13 3 -3 4 -12 1 -19z m8925 -243 c305 -406 393 -819
265 -1254 l-13 -45 -237 315 c-130 172 -248 328 -262 344 l-24 30 6 -90 c11
-173 -31 -432 -101 -616 -33 -89 -117 -269 -125 -269 -3 0 -20 39 -36 88 -60
179 -290 605 -475 882 -79 118 -77 114 -51 100 47 -24 260 -192 337 -264 94
-87 184 -200 214 -268 11 -27 23 -48 26 -48 3 0 17 26 32 58 26 54 27 65 26
202 0 140 -16 272 -49 418 -8 35 -15 66 -15 69 0 13 96 -9 160 -36 85 -35 182
-100 280 -184 41 -36 76 -64 78 -62 6 6 -67 530 -94 675 -8 41 -5 39 58 -45z
m-6905 -291 c-3 -3 -12 -4 -19 -1 -8 3 -5 6 6 6 11 1 17 -2 13 -5z m190 0 c-3
-3 -12 -4 -19 -1 -8 3 -5 6 6 6 11 1 17 -2 13 -5z m-1374 -266 c-29 -128 -62
-298 -74 -378 -28 -192 -28 -195 -39 -184 -24 24 -51 175 -57 313 l-6 145 -47
-51 c-56 -61 -118 -182 -162 -318 -17 -55 -33 -102 -35 -104 -6 -9 -85 74
-129 135 -95 132 -122 247 -90 374 17 67 74 181 93 187 7 3 23 -50 43 -134 17
-76 39 -162 48 -191 l17 -53 70 103 c87 129 202 245 323 326 51 34 94 62 96
62 1 0 -22 -105 -51 -232z m1462 82 c156 -41 353 -151 525 -295 41 -35 137
-126 212 -203 l137 -140 108 -26 c204 -48 383 -58 568 -31 363 52 592 183 940
535 l150 152 195 -45 c439 -103 649 -136 931 -144 223 -6 485 6 773 38 99 10
181 19 182 19 2 0 6 -17 10 -37 11 -65 71 -176 131 -243 32 -36 118 -121 191
-190 224 -210 292 -308 300 -436 2 -40 -1 -94 -7 -121 -10 -42 -20 -56 -61
-87 -74 -56 -229 -223 -283 -304 -68 -101 -123 -224 -148 -328 -28 -118 -23
-281 11 -400 l24 -81 129 111 c222 192 327 254 441 263 54 5 72 2 119 -20 60
-27 128 -89 172 -155 l27 -41 -41 -98 c-22 -54 -58 -141 -80 -193 -131 -312
-112 -553 58 -757 44 -54 178 -171 185 -162 1 2 24 35 50 72 107 153 268 232
496 244 228 12 457 -59 695 -215 97 -63 287 -257 358 -365 116 -176 204 -385
243 -577 l17 -85 -33 -65 c-378 -748 -1007 -1411 -1780 -1877 -803 -484 -1741
-780 -2805 -885 -195 -19 -695 -16 -875 6 -524 63 -958 186 -1395 396 -1385
664 -2355 2095 -2510 3705 -19 199 -22 637 -6 820 17 181 33 295 41 295 5 0
31 -16 60 -35 123 -82 288 -142 458 -165 127 -18 334 -7 482 23 319 67 518
198 695 457 114 167 118 181 123 443 l4 217 -73 -42 c-310 -175 -590 -251
-764 -204 -198 53 -299 210 -297 466 3 392 278 757 611 810 80 13 213 4 306
-20z m4572 4 c-3 -3 -12 -4 -19 -1 -8 3 -5 6 6 6 11 1 17 -2 13 -5z m-94 -11
c-7 -2 -19 -2 -25 0 -7 3 -2 5 12 5 14 0 19 -2 13 -5z m-106 -9 c-3 -3 -12 -4
-19 -1 -8 3 -5 6 6 6 11 1 17 -2 13 -5z m-120 -10 c-3 -3 -12 -4 -19 -1 -8 3
-5 6 6 6 11 1 17 -2 13 -5z m-524 -11 c-13 -2 -35 -2 -50 0 -16 2 -5 4 22 4
28 0 40 -2 28 -4z m345 0 c-15 -2 -42 -2 -60 0 -18 2 -6 4 27 4 33 0 48 -2 33
-4z m-2800 -510 c-10 -2 -26 -2 -35 0 -10 3 -2 5 17 5 19 0 27 -2 18 -5z m195
0 c-7 -2 -21 -2 -30 0 -10 3 -4 5 12 5 17 0 24 -2 18 -5z m-2536 -105 c-3 -8
-6 -5 -6 6 -1 11 2 17 5 13 3 -3 4 -12 1 -19z m-10 -195 c-2 -27 -3 -5 -3 47
0 52 1 74 3 48 2 -27 2 -69 0 -95z m10 -105 c-3 -8 -6 -5 -6 6 -1 11 2 17 5
13 3 -3 4 -12 1 -19z m1120 -420 c-3 -7 -5 -2 -5 12 0 14 2 19 5 13 2 -7 2
-19 0 -25z m8780 -270 c-3 -7 -5 -2 -5 12 0 14 2 19 5 13 2 -7 2 -19 0 -25z
m-10 -205 c-3 -10 -5 -4 -5 12 0 17 2 24 5 18 2 -7 2 -21 0 -30z m-9834 -150
c-7 -2 -19 -2 -25 0 -7 3 -2 5 12 5 14 0 19 -2 13 -5z m200 0 c-7 -2 -21 -2
-30 0 -10 3 -4 5 12 5 17 0 24 -2 18 -5z m7434 -949 c-3 -3 -12 -4 -19 -1 -8
3 -5 6 6 6 11 1 17 -2 13 -5z m148 -3414 c-278 -554 -1099 -1417 -1878 -1975
-115 -83 -297 -195 -315 -195 -6 0 -12 51 -16 123 -16 307 -45 567 -91 836
-14 79 -24 145 -23 146 2 1 64 19 138 39 763 214 1518 582 2092 1021 68 52
126 94 131 95 4 0 -13 -40 -38 -90z m-5243 -1155 c324 -83 622 -127 985 -145
120 -6 253 -8 296 -4 49 4 77 3 77 -3 0 -6 -22 -62 -49 -124 -27 -63 -65 -165
-85 -227 -39 -120 -110 -397 -121 -473 -12 -81 -11 -80 -142 -15 -405 201
-770 460 -1103 783 -116 112 -320 333 -320 346 0 2 65 -18 144 -44 80 -27 222
-69 318 -94z m2498 -10 c0 -14 -495 -534 -501 -528 -12 13 -241 415 -237 418
2 1 66 10 143 19 149 19 557 85 564 92 6 6 31 5 31 -1z"/>
<path d="M7955 9056 c-196 -45 -357 -167 -443 -333 -62 -121 -76 -179 -76
-318 1 -104 4 -131 28 -200 51 -148 136 -260 261 -343 254 -170 595 -143 816
65 138 131 199 263 207 453 5 139 -9 205 -69 330 -34 68 -58 101 -123 165 -87
86 -144 122 -258 161 -91 32 -251 41 -343 20z"/>
<path d="M4595 8946 c-97 -23 -168 -53 -241 -105 -173 -121 -269 -295 -281
-507 -11 -198 50 -358 191 -499 131 -131 283 -195 466 -195 183 0 335 64 465
194 141 142 202 301 192 496 -18 351 -282 612 -632 626 -64 2 -122 -1 -160
-10z"/>
<path d="M5734 6725 c-10 -40 3 -98 26 -117 102 -83 371 -96 1000 -48 350 27
752 36 895 21 98 -10 198 -28 263 -47 42 -12 24 21 -30 53 -99 60 -224 101
-395 130 -139 23 -595 25 -888 3 -110 -8 -306 -15 -435 -14 -229 0 -262 3
-402 39 -24 6 -28 3 -34 -20z"/>
</g>
</svg>
